<mxfile host="app.diagrams.net" modified="2023-07-15T00:36:25.190Z" agent="Mozilla/5.0 (Windows NT 10.0; Win64; x64) AppleWebKit/537.36 (KHTML, like Gecko) Chrome/113.0.0.0 Safari/537.36" etag="OWzDJy0PN9vM_UF5qOsV" version="21.6.2" type="github">
  <diagram name="Página-1" id="sgpbGKXVAoiBB3uO94ZU">
    <mxGraphModel dx="2620" dy="945" grid="1" gridSize="10" guides="1" tooltips="1" connect="1" arrows="1" fold="1" page="1" pageScale="1" pageWidth="827" pageHeight="1169" math="0" shadow="0">
      <root>
        <mxCell id="0" />
        <mxCell id="1" parent="0" />
        <mxCell id="1PB_SCIDDS1MxONWPjft-3" value="" style="edgeStyle=orthogonalEdgeStyle;rounded=0;orthogonalLoop=1;jettySize=auto;html=1;" edge="1" parent="1" source="1PB_SCIDDS1MxONWPjft-1" target="1PB_SCIDDS1MxONWPjft-2">
          <mxGeometry relative="1" as="geometry" />
        </mxCell>
        <mxCell id="1PB_SCIDDS1MxONWPjft-1" value="Inicio" style="ellipse;whiteSpace=wrap;html=1;" vertex="1" parent="1">
          <mxGeometry x="379" y="150" width="70" height="50" as="geometry" />
        </mxCell>
        <mxCell id="1PB_SCIDDS1MxONWPjft-5" value="" style="edgeStyle=orthogonalEdgeStyle;rounded=0;orthogonalLoop=1;jettySize=auto;html=1;" edge="1" parent="1" source="1PB_SCIDDS1MxONWPjft-2" target="1PB_SCIDDS1MxONWPjft-4">
          <mxGeometry relative="1" as="geometry" />
        </mxCell>
        <mxCell id="1PB_SCIDDS1MxONWPjft-2" value="Presentar inicio" style="rounded=1;whiteSpace=wrap;html=1;" vertex="1" parent="1">
          <mxGeometry x="374" y="240" width="80" height="35" as="geometry" />
        </mxCell>
        <mxCell id="1PB_SCIDDS1MxONWPjft-7" value="" style="edgeStyle=orthogonalEdgeStyle;rounded=0;orthogonalLoop=1;jettySize=auto;html=1;" edge="1" parent="1" source="1PB_SCIDDS1MxONWPjft-4" target="1PB_SCIDDS1MxONWPjft-6">
          <mxGeometry relative="1" as="geometry" />
        </mxCell>
        <mxCell id="1PB_SCIDDS1MxONWPjft-4" value="Desplegar opciones disponibles" style="rounded=1;whiteSpace=wrap;html=1;" vertex="1" parent="1">
          <mxGeometry x="344" y="310" width="140" height="30" as="geometry" />
        </mxCell>
        <mxCell id="1PB_SCIDDS1MxONWPjft-12" value="" style="edgeStyle=orthogonalEdgeStyle;rounded=0;orthogonalLoop=1;jettySize=auto;html=1;" edge="1" parent="1" source="1PB_SCIDDS1MxONWPjft-6">
          <mxGeometry relative="1" as="geometry">
            <mxPoint x="414" y="440" as="targetPoint" />
          </mxGeometry>
        </mxCell>
        <mxCell id="1PB_SCIDDS1MxONWPjft-6" value="Seleccione la opción" style="shape=parallelogram;perimeter=parallelogramPerimeter;whiteSpace=wrap;html=1;fixedSize=1;" vertex="1" parent="1">
          <mxGeometry x="339" y="370" width="150" height="30" as="geometry" />
        </mxCell>
        <mxCell id="1PB_SCIDDS1MxONWPjft-9" value="" style="shape=or;whiteSpace=wrap;html=1;rotation=90;" vertex="1" parent="1">
          <mxGeometry x="384" y="430" width="60" height="90" as="geometry" />
        </mxCell>
        <mxCell id="1PB_SCIDDS1MxONWPjft-10" value="Según la opcion" style="text;html=1;strokeColor=none;fillColor=none;align=center;verticalAlign=middle;whiteSpace=wrap;rounded=0;" vertex="1" parent="1">
          <mxGeometry x="384" y="460" width="60" height="30" as="geometry" />
        </mxCell>
        <mxCell id="1PB_SCIDDS1MxONWPjft-18" value="" style="endArrow=classic;html=1;rounded=0;" edge="1" parent="1">
          <mxGeometry width="50" height="50" relative="1" as="geometry">
            <mxPoint x="-480" y="460" as="sourcePoint" />
            <mxPoint x="-480" y="510" as="targetPoint" />
          </mxGeometry>
        </mxCell>
        <mxCell id="1PB_SCIDDS1MxONWPjft-20" value="" style="endArrow=none;html=1;rounded=0;entryX=0.282;entryY=0.98;entryDx=0;entryDy=0;entryPerimeter=0;" edge="1" parent="1" target="1PB_SCIDDS1MxONWPjft-9">
          <mxGeometry width="50" height="50" relative="1" as="geometry">
            <mxPoint x="-480" y="460" as="sourcePoint" />
            <mxPoint x="360" y="460" as="targetPoint" />
          </mxGeometry>
        </mxCell>
        <mxCell id="1PB_SCIDDS1MxONWPjft-21" value="CASE:&quot;Servicios&quot;" style="edgeLabel;html=1;align=center;verticalAlign=middle;resizable=0;points=[];" vertex="1" connectable="0" parent="1PB_SCIDDS1MxONWPjft-20">
          <mxGeometry x="-0.8134" relative="1" as="geometry">
            <mxPoint as="offset" />
          </mxGeometry>
        </mxCell>
        <mxCell id="1PB_SCIDDS1MxONWPjft-27" value="" style="edgeStyle=orthogonalEdgeStyle;rounded=0;orthogonalLoop=1;jettySize=auto;html=1;" edge="1" parent="1">
          <mxGeometry relative="1" as="geometry">
            <mxPoint x="-479.9333333333334" y="550" as="sourcePoint" />
            <mxPoint x="-480" y="585" as="targetPoint" />
          </mxGeometry>
        </mxCell>
        <mxCell id="1PB_SCIDDS1MxONWPjft-23" value="" style="shape=or;whiteSpace=wrap;html=1;rotation=90;" vertex="1" parent="1">
          <mxGeometry x="-505" y="620" width="50" height="105" as="geometry" />
        </mxCell>
        <mxCell id="1PB_SCIDDS1MxONWPjft-24" value="Según la opcion" style="text;html=1;strokeColor=none;fillColor=none;align=center;verticalAlign=middle;whiteSpace=wrap;rounded=0;" vertex="1" parent="1">
          <mxGeometry x="-510" y="657.5" width="60" height="30" as="geometry" />
        </mxCell>
        <mxCell id="1PB_SCIDDS1MxONWPjft-28" value="" style="endArrow=none;html=1;rounded=0;entryX=0.255;entryY=1.003;entryDx=0;entryDy=0;entryPerimeter=0;" edge="1" parent="1" target="1PB_SCIDDS1MxONWPjft-23">
          <mxGeometry width="50" height="50" relative="1" as="geometry">
            <mxPoint x="-630" y="660" as="sourcePoint" />
            <mxPoint x="-540" y="657.5" as="targetPoint" />
          </mxGeometry>
        </mxCell>
        <mxCell id="1PB_SCIDDS1MxONWPjft-29" value="Desplegar opciones disponibles" style="rounded=1;whiteSpace=wrap;html=1;" vertex="1" parent="1">
          <mxGeometry x="-540" y="520" width="140" height="30" as="geometry" />
        </mxCell>
        <mxCell id="1PB_SCIDDS1MxONWPjft-30" value="Seleccione la opción" style="shape=parallelogram;perimeter=parallelogramPerimeter;whiteSpace=wrap;html=1;fixedSize=1;" vertex="1" parent="1">
          <mxGeometry x="-563" y="585" width="150" height="30" as="geometry" />
        </mxCell>
        <mxCell id="1PB_SCIDDS1MxONWPjft-33" value="" style="edgeStyle=orthogonalEdgeStyle;rounded=0;orthogonalLoop=1;jettySize=auto;html=1;" edge="1" parent="1">
          <mxGeometry relative="1" as="geometry">
            <mxPoint x="-479.9333333333334" y="615" as="sourcePoint" />
            <mxPoint x="-480" y="650" as="targetPoint" />
          </mxGeometry>
        </mxCell>
        <mxCell id="1PB_SCIDDS1MxONWPjft-34" value="Psicología" style="rounded=1;whiteSpace=wrap;html=1;" vertex="1" parent="1">
          <mxGeometry x="-700" y="700" width="140" height="30" as="geometry" />
        </mxCell>
        <mxCell id="1PB_SCIDDS1MxONWPjft-35" value="" style="endArrow=classic;html=1;rounded=0;" edge="1" parent="1">
          <mxGeometry width="50" height="50" relative="1" as="geometry">
            <mxPoint x="-480.37" y="700" as="sourcePoint" />
            <mxPoint x="-480.37" y="740" as="targetPoint" />
          </mxGeometry>
        </mxCell>
        <mxCell id="1PB_SCIDDS1MxONWPjft-38" value="Orientación Estudiantil" style="rounded=1;whiteSpace=wrap;html=1;" vertex="1" parent="1">
          <mxGeometry x="-550" y="740" width="140" height="30" as="geometry" />
        </mxCell>
        <mxCell id="1PB_SCIDDS1MxONWPjft-39" value="" style="endArrow=classic;html=1;rounded=0;" edge="1" parent="1">
          <mxGeometry width="50" height="50" relative="1" as="geometry">
            <mxPoint x="-630" y="660" as="sourcePoint" />
            <mxPoint x="-630" y="700" as="targetPoint" />
          </mxGeometry>
        </mxCell>
        <mxCell id="1PB_SCIDDS1MxONWPjft-40" value="Psicopedagogía" style="rounded=1;whiteSpace=wrap;html=1;" vertex="1" parent="1">
          <mxGeometry x="-400" y="700" width="140" height="30" as="geometry" />
        </mxCell>
        <mxCell id="1PB_SCIDDS1MxONWPjft-42" value="" style="endArrow=none;html=1;rounded=0;exitX=0.247;exitY=0.018;exitDx=0;exitDy=0;exitPerimeter=0;" edge="1" parent="1" source="1PB_SCIDDS1MxONWPjft-23">
          <mxGeometry width="50" height="50" relative="1" as="geometry">
            <mxPoint x="-420" y="660" as="sourcePoint" />
            <mxPoint x="-330" y="660" as="targetPoint" />
          </mxGeometry>
        </mxCell>
        <mxCell id="1PB_SCIDDS1MxONWPjft-43" value="" style="endArrow=classic;html=1;rounded=0;" edge="1" parent="1">
          <mxGeometry width="50" height="50" relative="1" as="geometry">
            <mxPoint x="-330" y="660" as="sourcePoint" />
            <mxPoint x="-330" y="700" as="targetPoint" />
          </mxGeometry>
        </mxCell>
      </root>
    </mxGraphModel>
  </diagram>
</mxfile>
